<mxfile host="app.diagrams.net" agent="Mozilla/5.0 (Windows NT 10.0; Win64; x64) AppleWebKit/537.36 (KHTML, like Gecko) Chrome/131.0.0.0 Safari/537.36" version="24.8.8">
  <diagram name="1 oldal" id="ZMZRKDRGCFKt-77lyp_9">
    <mxGraphModel dx="2514" dy="1059" grid="1" gridSize="20" guides="1" tooltips="1" connect="1" arrows="1" fold="1" page="1" pageScale="1" pageWidth="827" pageHeight="1169" background="none" math="0" shadow="0">
      <root>
        <mxCell id="0" />
        <mxCell id="1" parent="0" />
        <mxCell id="f6jzMSX53O74oRBeveRZ-4" value="" style="edgeStyle=orthogonalEdgeStyle;rounded=0;orthogonalLoop=1;jettySize=auto;html=1;" parent="1" source="f6jzMSX53O74oRBeveRZ-2" target="f6jzMSX53O74oRBeveRZ-3" edge="1">
          <mxGeometry relative="1" as="geometry" />
        </mxCell>
        <mxCell id="f6jzMSX53O74oRBeveRZ-2" value="&lt;span style=&quot;font-size: 20px;&quot;&gt;Weboldal betöltése&lt;/span&gt;" style="ellipse;whiteSpace=wrap;html=1;" parent="1" vertex="1">
          <mxGeometry x="354" y="50" width="120" height="80" as="geometry" />
        </mxCell>
        <mxCell id="f6jzMSX53O74oRBeveRZ-6" value="&lt;font style=&quot;font-size: 20px;&quot;&gt;Közepes&lt;/font&gt;" style="edgeStyle=orthogonalEdgeStyle;rounded=0;orthogonalLoop=1;jettySize=auto;html=1;" parent="1" source="f6jzMSX53O74oRBeveRZ-3" target="f6jzMSX53O74oRBeveRZ-5" edge="1">
          <mxGeometry relative="1" as="geometry" />
        </mxCell>
        <mxCell id="f6jzMSX53O74oRBeveRZ-8" value="&lt;font style=&quot;font-size: 20px;&quot;&gt;Nehéz&lt;/font&gt;" style="edgeStyle=orthogonalEdgeStyle;rounded=0;orthogonalLoop=1;jettySize=auto;html=1;" parent="1" source="f6jzMSX53O74oRBeveRZ-3" target="f6jzMSX53O74oRBeveRZ-7" edge="1">
          <mxGeometry relative="1" as="geometry" />
        </mxCell>
        <mxCell id="f6jzMSX53O74oRBeveRZ-11" value="&lt;font style=&quot;font-size: 20px;&quot;&gt;Könnyű&lt;/font&gt;" style="edgeStyle=orthogonalEdgeStyle;rounded=0;orthogonalLoop=1;jettySize=auto;html=1;" parent="1" source="f6jzMSX53O74oRBeveRZ-3" target="f6jzMSX53O74oRBeveRZ-10" edge="1">
          <mxGeometry relative="1" as="geometry" />
        </mxCell>
        <mxCell id="f6jzMSX53O74oRBeveRZ-3" value="&lt;font style=&quot;font-size: 20px;&quot;&gt;Nehézség kiválasztása&lt;/font&gt;" style="rhombus;whiteSpace=wrap;html=1;" parent="1" vertex="1">
          <mxGeometry x="320" y="210" width="190" height="110" as="geometry" />
        </mxCell>
        <mxCell id="f6jzMSX53O74oRBeveRZ-20" value="" style="edgeStyle=orthogonalEdgeStyle;rounded=0;orthogonalLoop=1;jettySize=auto;html=1;" parent="1" source="f6jzMSX53O74oRBeveRZ-5" target="f6jzMSX53O74oRBeveRZ-19" edge="1">
          <mxGeometry relative="1" as="geometry" />
        </mxCell>
        <mxCell id="f6jzMSX53O74oRBeveRZ-5" value="&lt;font style=&quot;font-size: 20px;&quot;&gt;Osztó: Pognár Bál&lt;/font&gt;&lt;div style=&quot;font-size: 20px;&quot;&gt;&lt;font style=&quot;font-size: 20px;&quot;&gt;Életek száma: 5&lt;/font&gt;&lt;/div&gt;" style="whiteSpace=wrap;html=1;" parent="1" vertex="1">
          <mxGeometry x="330" y="425" width="170" height="75" as="geometry" />
        </mxCell>
        <mxCell id="Q3eZlY39DHZq_vyG-HEF-1" style="edgeStyle=orthogonalEdgeStyle;rounded=0;orthogonalLoop=1;jettySize=auto;html=1;entryX=0.5;entryY=0;entryDx=0;entryDy=0;exitX=0.555;exitY=1.07;exitDx=0;exitDy=0;exitPerimeter=0;" parent="1" source="f6jzMSX53O74oRBeveRZ-7" target="f6jzMSX53O74oRBeveRZ-19" edge="1">
          <mxGeometry relative="1" as="geometry">
            <Array as="points">
              <mxPoint x="825" y="520" />
              <mxPoint x="415" y="520" />
            </Array>
          </mxGeometry>
        </mxCell>
        <mxCell id="f6jzMSX53O74oRBeveRZ-7" value="&lt;font style=&quot;font-size: 20px;&quot;&gt;Osztó: Slódos, a slosztó&lt;/font&gt;&lt;div style=&quot;font-size: 20px;&quot;&gt;&lt;font style=&quot;font-size: 20px;&quot;&gt;Életek száma: 7&lt;/font&gt;&lt;/div&gt;" style="whiteSpace=wrap;html=1;" parent="1" vertex="1">
          <mxGeometry x="700" y="420" width="226" height="75" as="geometry" />
        </mxCell>
        <mxCell id="Q3eZlY39DHZq_vyG-HEF-2" style="edgeStyle=orthogonalEdgeStyle;rounded=0;orthogonalLoop=1;jettySize=auto;html=1;entryX=0.5;entryY=0;entryDx=0;entryDy=0;exitX=0.5;exitY=1;exitDx=0;exitDy=0;" parent="1" source="f6jzMSX53O74oRBeveRZ-10" target="f6jzMSX53O74oRBeveRZ-19" edge="1">
          <mxGeometry relative="1" as="geometry">
            <Array as="points">
              <mxPoint x="60" y="520" />
              <mxPoint x="415" y="520" />
            </Array>
          </mxGeometry>
        </mxCell>
        <mxCell id="f6jzMSX53O74oRBeveRZ-10" value="&lt;font style=&quot;font-size: 20px;&quot;&gt;Osztó: Slomjai László&lt;/font&gt;&lt;div style=&quot;font-size: 20px;&quot;&gt;&lt;font style=&quot;font-size: 20px;&quot;&gt;Életek száma: 3&lt;/font&gt;&lt;/div&gt;" style="whiteSpace=wrap;html=1;" parent="1" vertex="1">
          <mxGeometry x="-20" y="420" width="200" height="80" as="geometry" />
        </mxCell>
        <mxCell id="f6jzMSX53O74oRBeveRZ-22" value="&lt;font style=&quot;font-size: 20px;&quot;&gt;Igen&lt;/font&gt;" style="edgeStyle=orthogonalEdgeStyle;rounded=0;orthogonalLoop=1;jettySize=auto;html=1;" parent="1" source="f6jzMSX53O74oRBeveRZ-19" target="f6jzMSX53O74oRBeveRZ-21" edge="1">
          <mxGeometry relative="1" as="geometry" />
        </mxCell>
        <mxCell id="f6jzMSX53O74oRBeveRZ-29" value="&lt;font style=&quot;font-size: 20px;&quot;&gt;Nem&lt;/font&gt;" style="edgeStyle=orthogonalEdgeStyle;rounded=0;orthogonalLoop=1;jettySize=auto;html=1;" parent="1" source="f6jzMSX53O74oRBeveRZ-19" target="f6jzMSX53O74oRBeveRZ-28" edge="1">
          <mxGeometry relative="1" as="geometry" />
        </mxCell>
        <mxCell id="f6jzMSX53O74oRBeveRZ-19" value="&lt;font style=&quot;font-size: 20px;&quot;&gt;Elfogyott az osztó élete?&lt;/font&gt;" style="rhombus;whiteSpace=wrap;html=1;" parent="1" vertex="1">
          <mxGeometry x="290" y="577.5" width="250" height="142.5" as="geometry" />
        </mxCell>
        <mxCell id="f6jzMSX53O74oRBeveRZ-24" value="" style="edgeStyle=orthogonalEdgeStyle;rounded=0;orthogonalLoop=1;jettySize=auto;html=1;" parent="1" source="f6jzMSX53O74oRBeveRZ-21" target="f6jzMSX53O74oRBeveRZ-23" edge="1">
          <mxGeometry relative="1" as="geometry" />
        </mxCell>
        <mxCell id="f6jzMSX53O74oRBeveRZ-21" value="&lt;font style=&quot;font-size: 20px;&quot;&gt;Nyertél!&lt;/font&gt;" style="whiteSpace=wrap;html=1;" parent="1" vertex="1">
          <mxGeometry x="685" y="618.75" width="120" height="60" as="geometry" />
        </mxCell>
        <mxCell id="Q3eZlY39DHZq_vyG-HEF-17" value="&lt;font style=&quot;font-size: 20px;&quot;&gt;Igen&lt;/font&gt;" style="edgeStyle=orthogonalEdgeStyle;rounded=0;orthogonalLoop=1;jettySize=auto;html=1;entryX=1;entryY=0.5;entryDx=0;entryDy=0;" parent="1" source="f6jzMSX53O74oRBeveRZ-23" target="f6jzMSX53O74oRBeveRZ-2" edge="1">
          <mxGeometry relative="1" as="geometry">
            <Array as="points">
              <mxPoint x="1013" y="90" />
            </Array>
          </mxGeometry>
        </mxCell>
        <mxCell id="f6jzMSX53O74oRBeveRZ-23" value="&lt;font style=&quot;font-size: 20px;&quot;&gt;Rányomott az újrakezdésre?&lt;/font&gt;" style="rhombus;whiteSpace=wrap;html=1;" parent="1" vertex="1">
          <mxGeometry x="905" y="600" width="215" height="100" as="geometry" />
        </mxCell>
        <mxCell id="f6jzMSX53O74oRBeveRZ-27" value="&lt;font style=&quot;font-size: 20px;&quot;&gt;Nem&lt;/font&gt;" style="endArrow=classic;html=1;rounded=0;exitX=1;exitY=0.5;exitDx=0;exitDy=0;entryX=0.5;entryY=1;entryDx=0;entryDy=0;" parent="1" source="f6jzMSX53O74oRBeveRZ-23" target="f6jzMSX53O74oRBeveRZ-23" edge="1">
          <mxGeometry width="50" height="50" relative="1" as="geometry">
            <mxPoint x="480" y="840" as="sourcePoint" />
            <mxPoint x="1120" y="820" as="targetPoint" />
            <Array as="points">
              <mxPoint x="1220" y="650" />
              <mxPoint x="1220" y="830" />
              <mxPoint x="1120" y="830" />
              <mxPoint x="1013" y="830" />
            </Array>
          </mxGeometry>
        </mxCell>
        <mxCell id="f6jzMSX53O74oRBeveRZ-31" value="&lt;font style=&quot;font-size: 20px;&quot;&gt;Igen&lt;/font&gt;" style="edgeStyle=orthogonalEdgeStyle;rounded=0;orthogonalLoop=1;jettySize=auto;html=1;" parent="1" source="f6jzMSX53O74oRBeveRZ-28" target="f6jzMSX53O74oRBeveRZ-30" edge="1">
          <mxGeometry relative="1" as="geometry" />
        </mxCell>
        <mxCell id="Q3eZlY39DHZq_vyG-HEF-8" value="&lt;font style=&quot;font-size: 20px;&quot;&gt;Nem&lt;/font&gt;" style="edgeStyle=orthogonalEdgeStyle;rounded=0;orthogonalLoop=1;jettySize=auto;html=1;" parent="1" source="f6jzMSX53O74oRBeveRZ-28" target="Q3eZlY39DHZq_vyG-HEF-7" edge="1">
          <mxGeometry relative="1" as="geometry" />
        </mxCell>
        <mxCell id="f6jzMSX53O74oRBeveRZ-28" value="&lt;font style=&quot;font-size: 20px;&quot;&gt;Elfogyott a játékos élete?&lt;/font&gt;" style="rhombus;whiteSpace=wrap;html=1;" parent="1" vertex="1">
          <mxGeometry x="290" y="831.25" width="250" height="168.75" as="geometry" />
        </mxCell>
        <mxCell id="f6jzMSX53O74oRBeveRZ-34" style="edgeStyle=orthogonalEdgeStyle;rounded=0;orthogonalLoop=1;jettySize=auto;html=1;entryX=0;entryY=0.5;entryDx=0;entryDy=0;" parent="1" source="f6jzMSX53O74oRBeveRZ-30" target="f6jzMSX53O74oRBeveRZ-23" edge="1">
          <mxGeometry relative="1" as="geometry" />
        </mxCell>
        <mxCell id="f6jzMSX53O74oRBeveRZ-30" value="&lt;font style=&quot;font-size: 20px;&quot;&gt;Vesztettél!&lt;/font&gt;" style="whiteSpace=wrap;html=1;" parent="1" vertex="1">
          <mxGeometry x="685" y="885.625" width="120" height="60" as="geometry" />
        </mxCell>
        <mxCell id="Q3eZlY39DHZq_vyG-HEF-10" value="" style="edgeStyle=orthogonalEdgeStyle;rounded=0;orthogonalLoop=1;jettySize=auto;html=1;" parent="1" source="Q3eZlY39DHZq_vyG-HEF-7" target="Q3eZlY39DHZq_vyG-HEF-9" edge="1">
          <mxGeometry relative="1" as="geometry" />
        </mxCell>
        <mxCell id="Q3eZlY39DHZq_vyG-HEF-7" value="&lt;font style=&quot;font-size: 20px;&quot;&gt;Játékos kap egy lapot felfordítva, osztó kap egy lapot felfordítva, játékos kap egy lapot felfordítva, osztó kap egy lapot lefordítva&lt;/font&gt;" style="whiteSpace=wrap;html=1;" parent="1" vertex="1">
          <mxGeometry x="155" y="1134.38" width="520" height="145.62" as="geometry" />
        </mxCell>
        <mxCell id="D5Q6ApgEeWc4QGrv6A4V-2" value="&lt;font style=&quot;font-size: 20px;&quot;&gt;Nem kér több kártyát&lt;/font&gt;" style="edgeStyle=orthogonalEdgeStyle;rounded=0;orthogonalLoop=1;jettySize=auto;html=1;" edge="1" parent="1" source="Q3eZlY39DHZq_vyG-HEF-9" target="D5Q6ApgEeWc4QGrv6A4V-1">
          <mxGeometry relative="1" as="geometry" />
        </mxCell>
        <mxCell id="D5Q6ApgEeWc4QGrv6A4V-4" value="&lt;font style=&quot;font-size: 20px;&quot;&gt;Kér még kártyát&lt;/font&gt;" style="edgeStyle=orthogonalEdgeStyle;rounded=0;orthogonalLoop=1;jettySize=auto;html=1;" edge="1" parent="1" source="Q3eZlY39DHZq_vyG-HEF-9" target="D5Q6ApgEeWc4QGrv6A4V-3">
          <mxGeometry relative="1" as="geometry" />
        </mxCell>
        <mxCell id="Q3eZlY39DHZq_vyG-HEF-9" value="&lt;font style=&quot;font-size: 20px;&quot;&gt;Játékos választ&lt;/font&gt;" style="rhombus;whiteSpace=wrap;html=1;" parent="1" vertex="1">
          <mxGeometry x="325" y="1392.81" width="180" height="87.19" as="geometry" />
        </mxCell>
        <mxCell id="D5Q6ApgEeWc4QGrv6A4V-7" value="" style="edgeStyle=orthogonalEdgeStyle;rounded=0;orthogonalLoop=1;jettySize=auto;html=1;" edge="1" parent="1" source="D5Q6ApgEeWc4QGrv6A4V-1" target="D5Q6ApgEeWc4QGrv6A4V-6">
          <mxGeometry relative="1" as="geometry" />
        </mxCell>
        <mxCell id="D5Q6ApgEeWc4QGrv6A4V-1" value="&lt;font style=&quot;font-size: 20px;&quot;&gt;Az osztó felfordítja a másik lapját, majd addig rak magának lapokat, amíg az összegük nem lesz nagyobb, mint 16&lt;/font&gt;" style="whiteSpace=wrap;html=1;" vertex="1" parent="1">
          <mxGeometry x="-100" y="1540" width="340" height="120" as="geometry" />
        </mxCell>
        <mxCell id="D5Q6ApgEeWc4QGrv6A4V-9" value="" style="edgeStyle=orthogonalEdgeStyle;rounded=0;orthogonalLoop=1;jettySize=auto;html=1;" edge="1" parent="1" source="D5Q6ApgEeWc4QGrv6A4V-3" target="D5Q6ApgEeWc4QGrv6A4V-8">
          <mxGeometry relative="1" as="geometry" />
        </mxCell>
        <mxCell id="D5Q6ApgEeWc4QGrv6A4V-3" value="&lt;font style=&quot;font-size: 20px;&quot;&gt;A játékos kap egy lapot&lt;/font&gt;" style="whiteSpace=wrap;html=1;" vertex="1" parent="1">
          <mxGeometry x="720" y="1540" width="160" height="80" as="geometry" />
        </mxCell>
        <mxCell id="D5Q6ApgEeWc4QGrv6A4V-14" value="&lt;font style=&quot;font-size: 20px;&quot;&gt;Igen&lt;/font&gt;" style="edgeStyle=orthogonalEdgeStyle;rounded=0;orthogonalLoop=1;jettySize=auto;html=1;" edge="1" parent="1" source="D5Q6ApgEeWc4QGrv6A4V-6" target="D5Q6ApgEeWc4QGrv6A4V-13">
          <mxGeometry relative="1" as="geometry" />
        </mxCell>
        <mxCell id="D5Q6ApgEeWc4QGrv6A4V-18" value="&lt;font style=&quot;font-size: 20px;&quot;&gt;Nem&lt;/font&gt;" style="edgeStyle=orthogonalEdgeStyle;rounded=0;orthogonalLoop=1;jettySize=auto;html=1;" edge="1" parent="1" source="D5Q6ApgEeWc4QGrv6A4V-6" target="D5Q6ApgEeWc4QGrv6A4V-17">
          <mxGeometry relative="1" as="geometry" />
        </mxCell>
        <mxCell id="D5Q6ApgEeWc4QGrv6A4V-6" value="&lt;font style=&quot;font-size: 20px;&quot;&gt;Az osztó lapjainak száma nagyobb, mint 21?&lt;/font&gt;" style="rhombus;whiteSpace=wrap;html=1;" vertex="1" parent="1">
          <mxGeometry x="-40" y="1760" width="220" height="200" as="geometry" />
        </mxCell>
        <mxCell id="D5Q6ApgEeWc4QGrv6A4V-12" value="&lt;font style=&quot;font-size: 20px;&quot;&gt;Igen&lt;/font&gt;" style="edgeStyle=orthogonalEdgeStyle;rounded=0;orthogonalLoop=1;jettySize=auto;html=1;" edge="1" parent="1" source="D5Q6ApgEeWc4QGrv6A4V-8" target="D5Q6ApgEeWc4QGrv6A4V-11">
          <mxGeometry relative="1" as="geometry" />
        </mxCell>
        <mxCell id="D5Q6ApgEeWc4QGrv6A4V-8" value="&lt;font style=&quot;font-size: 20px;&quot;&gt;A játékos lapjainak összege nagyobb, mint 21?&lt;/font&gt;" style="rhombus;whiteSpace=wrap;html=1;" vertex="1" parent="1">
          <mxGeometry x="680" y="1700" width="240" height="180" as="geometry" />
        </mxCell>
        <mxCell id="D5Q6ApgEeWc4QGrv6A4V-10" value="&lt;font style=&quot;font-size: 20px;&quot;&gt;Nem&lt;/font&gt;" style="edgeStyle=orthogonalEdgeStyle;rounded=0;orthogonalLoop=1;jettySize=auto;html=1;entryX=0.467;entryY=1.023;entryDx=0;entryDy=0;entryPerimeter=0;" edge="1" parent="1" source="D5Q6ApgEeWc4QGrv6A4V-8" target="Q3eZlY39DHZq_vyG-HEF-9">
          <mxGeometry relative="1" as="geometry" />
        </mxCell>
        <mxCell id="D5Q6ApgEeWc4QGrv6A4V-27" style="edgeStyle=orthogonalEdgeStyle;rounded=0;orthogonalLoop=1;jettySize=auto;html=1;entryX=0;entryY=0.5;entryDx=0;entryDy=0;" edge="1" parent="1" source="D5Q6ApgEeWc4QGrv6A4V-11" target="f6jzMSX53O74oRBeveRZ-19">
          <mxGeometry relative="1" as="geometry">
            <Array as="points">
              <mxPoint x="800" y="2500" />
              <mxPoint x="-560" y="2500" />
              <mxPoint x="-560" y="649" />
            </Array>
          </mxGeometry>
        </mxCell>
        <mxCell id="D5Q6ApgEeWc4QGrv6A4V-11" value="&lt;font style=&quot;font-size: 20px;&quot;&gt;Az osztó nyer, a játékos életeinek száma eggyel csökken&lt;/font&gt;" style="whiteSpace=wrap;html=1;" vertex="1" parent="1">
          <mxGeometry x="680" y="2020" width="240" height="100" as="geometry" />
        </mxCell>
        <mxCell id="D5Q6ApgEeWc4QGrv6A4V-24" style="edgeStyle=orthogonalEdgeStyle;rounded=0;orthogonalLoop=1;jettySize=auto;html=1;entryX=0;entryY=0.5;entryDx=0;entryDy=0;" edge="1" parent="1" source="D5Q6ApgEeWc4QGrv6A4V-13" target="f6jzMSX53O74oRBeveRZ-19">
          <mxGeometry relative="1" as="geometry">
            <Array as="points">
              <mxPoint x="-280" y="649" />
            </Array>
          </mxGeometry>
        </mxCell>
        <mxCell id="D5Q6ApgEeWc4QGrv6A4V-13" value="&lt;font style=&quot;font-size: 20px;&quot;&gt;Az osztó életeinek száma eggyel csökken&lt;/font&gt;" style="whiteSpace=wrap;html=1;" vertex="1" parent="1">
          <mxGeometry x="-300" y="1980" width="240" height="100" as="geometry" />
        </mxCell>
        <mxCell id="D5Q6ApgEeWc4QGrv6A4V-21" value="&lt;font style=&quot;font-size: 20px;&quot;&gt;Az osztónak&lt;/font&gt;" style="edgeStyle=orthogonalEdgeStyle;rounded=0;orthogonalLoop=1;jettySize=auto;html=1;" edge="1" parent="1" source="D5Q6ApgEeWc4QGrv6A4V-17" target="D5Q6ApgEeWc4QGrv6A4V-20">
          <mxGeometry relative="1" as="geometry" />
        </mxCell>
        <mxCell id="D5Q6ApgEeWc4QGrv6A4V-23" value="&lt;font style=&quot;font-size: 20px;&quot;&gt;A játékosnak&lt;/font&gt;" style="edgeStyle=orthogonalEdgeStyle;rounded=0;orthogonalLoop=1;jettySize=auto;html=1;" edge="1" parent="1" source="D5Q6ApgEeWc4QGrv6A4V-17" target="D5Q6ApgEeWc4QGrv6A4V-22">
          <mxGeometry relative="1" as="geometry" />
        </mxCell>
        <mxCell id="D5Q6ApgEeWc4QGrv6A4V-17" value="&lt;font style=&quot;font-size: 20px;&quot;&gt;Kinek több a kártyáinak az összege?&lt;/font&gt;" style="rhombus;whiteSpace=wrap;html=1;" vertex="1" parent="1">
          <mxGeometry x="-80" y="2100" width="300" height="160" as="geometry" />
        </mxCell>
        <mxCell id="D5Q6ApgEeWc4QGrv6A4V-26" style="edgeStyle=orthogonalEdgeStyle;rounded=0;orthogonalLoop=1;jettySize=auto;html=1;entryX=0;entryY=0.5;entryDx=0;entryDy=0;" edge="1" parent="1" source="D5Q6ApgEeWc4QGrv6A4V-20" target="f6jzMSX53O74oRBeveRZ-19">
          <mxGeometry relative="1" as="geometry">
            <Array as="points">
              <mxPoint x="365" y="2440" />
              <mxPoint x="-500" y="2440" />
              <mxPoint x="-500" y="649" />
            </Array>
          </mxGeometry>
        </mxCell>
        <mxCell id="D5Q6ApgEeWc4QGrv6A4V-20" value="&lt;font style=&quot;font-size: 20px;&quot;&gt;A játékos életeinek száma eggyel csökken&lt;/font&gt;" style="whiteSpace=wrap;html=1;" vertex="1" parent="1">
          <mxGeometry x="280" y="2320" width="170" height="90" as="geometry" />
        </mxCell>
        <mxCell id="D5Q6ApgEeWc4QGrv6A4V-25" style="edgeStyle=orthogonalEdgeStyle;rounded=0;orthogonalLoop=1;jettySize=auto;html=1;entryX=0;entryY=0.5;entryDx=0;entryDy=0;" edge="1" parent="1" source="D5Q6ApgEeWc4QGrv6A4V-22" target="f6jzMSX53O74oRBeveRZ-19">
          <mxGeometry relative="1" as="geometry">
            <Array as="points">
              <mxPoint x="-400" y="2350" />
              <mxPoint x="-400" y="649" />
            </Array>
          </mxGeometry>
        </mxCell>
        <mxCell id="D5Q6ApgEeWc4QGrv6A4V-22" value="&lt;font style=&quot;font-size: 20px;&quot;&gt;Az osztó életeinek száma eggyel csökken&lt;/font&gt;" style="whiteSpace=wrap;html=1;" vertex="1" parent="1">
          <mxGeometry x="-360" y="2300" width="180" height="100" as="geometry" />
        </mxCell>
      </root>
    </mxGraphModel>
  </diagram>
</mxfile>
